<svg width="120" height="120" viewBox="0 0 120 120" fill="none" xmlns="http://www.w3.org/2000/svg">
  <circle cx="60" cy="60" r="50" fill="#34A853" opacity="0.2"/>
  <path d="M60 20C37.909 20 20 37.909 20 60C20 82.091 37.909 100 60 100C82.091 100 100 82.091 100 60C100 37.909 82.091 20 60 20ZM60 90C43.433 90 30 76.567 30 60C30 43.433 43.433 30 60 30C76.567 30 90 43.433 90 60C90 76.567 76.567 90 60 90Z" fill="#34A853"/>
  <path d="M45 45V75H52.5V65H67.5V75H75V45H67.5V57.5H52.5V45H45Z" fill="#1A73E8"/>
</svg> 